<mxfile host="app.diagrams.net" agent="Mozilla/5.0 (X11; Linux x86_64; rv:128.0) Gecko/20100101 Firefox/128.0" version="26.2.3">
  <diagram name="Page-1" id="EwVvY_XLh2tar-kyspSp">
    <mxGraphModel dx="985" dy="565" grid="1" gridSize="10" guides="1" tooltips="1" connect="1" arrows="1" fold="1" page="1" pageScale="1" pageWidth="850" pageHeight="1100" math="0" shadow="0">
      <root>
        <mxCell id="0" />
        <mxCell id="1" parent="0" />
        <mxCell id="aYS-mJSF5tWhIcVHKOSk-3" value="&lt;font style=&quot;font-size: 18px;&quot;&gt;&lt;b&gt;&lt;font&gt;Source Code&lt;/font&gt;&lt;/b&gt;&lt;/font&gt;" style="shape=note;whiteSpace=wrap;html=1;backgroundOutline=1;darkOpacity=0.05;" vertex="1" parent="1">
          <mxGeometry x="40" y="440" width="80" height="100" as="geometry" />
        </mxCell>
        <mxCell id="aYS-mJSF5tWhIcVHKOSk-17" value="&lt;b&gt;&lt;font style=&quot;font-size: 24px;&quot;&gt;ASR&lt;/font&gt;&lt;/b&gt;" style="shape=card;whiteSpace=wrap;html=1;" vertex="1" parent="1">
          <mxGeometry x="400" y="440" width="80" height="100" as="geometry" />
        </mxCell>
        <mxCell id="aYS-mJSF5tWhIcVHKOSk-26" value="AST" style="swimlane;startSize=25;horizontal=1;containerType=tree;newEdgeStyle={&quot;edgeStyle&quot;:&quot;elbowEdgeStyle&quot;,&quot;startArrow&quot;:&quot;none&quot;,&quot;endArrow&quot;:&quot;none&quot;};fontStyle=1;fontSize=14;spacing=3;rounded=0;shadow=0;glass=0;swimlaneLine=1;" vertex="1" parent="1">
          <mxGeometry x="240" y="440" width="80" height="104" as="geometry" />
        </mxCell>
        <mxCell id="aYS-mJSF5tWhIcVHKOSk-27" value="" style="edgeStyle=elbowEdgeStyle;elbow=vertical;sourcePerimeterSpacing=0;targetPerimeterSpacing=0;startArrow=none;endArrow=none;rounded=0;curved=0;entryX=0.5;entryY=0;entryDx=0;entryDy=0;" edge="1" parent="aYS-mJSF5tWhIcVHKOSk-26" source="aYS-mJSF5tWhIcVHKOSk-29" target="aYS-mJSF5tWhIcVHKOSk-30">
          <mxGeometry relative="1" as="geometry">
            <mxPoint x="27" y="68" as="targetPoint" />
          </mxGeometry>
        </mxCell>
        <mxCell id="aYS-mJSF5tWhIcVHKOSk-28" value="" style="edgeStyle=elbowEdgeStyle;elbow=vertical;sourcePerimeterSpacing=0;targetPerimeterSpacing=0;startArrow=none;endArrow=none;rounded=0;curved=0;" edge="1" parent="aYS-mJSF5tWhIcVHKOSk-26" source="aYS-mJSF5tWhIcVHKOSk-29" target="aYS-mJSF5tWhIcVHKOSk-31">
          <mxGeometry relative="1" as="geometry" />
        </mxCell>
        <UserObject label="" treeRoot="1" id="aYS-mJSF5tWhIcVHKOSk-29">
          <mxCell style="whiteSpace=wrap;html=1;align=center;treeFolding=1;treeMoving=1;newEdgeStyle={&quot;edgeStyle&quot;:&quot;elbowEdgeStyle&quot;,&quot;startArrow&quot;:&quot;none&quot;,&quot;endArrow&quot;:&quot;none&quot;};" vertex="1" parent="aYS-mJSF5tWhIcVHKOSk-26">
            <mxGeometry x="30" y="40" width="20" height="19" as="geometry" />
          </mxCell>
        </UserObject>
        <mxCell id="aYS-mJSF5tWhIcVHKOSk-30" value="" style="whiteSpace=wrap;html=1;align=center;verticalAlign=middle;treeFolding=1;treeMoving=1;newEdgeStyle={&quot;edgeStyle&quot;:&quot;elbowEdgeStyle&quot;,&quot;startArrow&quot;:&quot;none&quot;,&quot;endArrow&quot;:&quot;none&quot;};" vertex="1" collapsed="1" parent="aYS-mJSF5tWhIcVHKOSk-26">
          <mxGeometry x="10" y="70" width="20" height="20" as="geometry" />
        </mxCell>
        <mxCell id="aYS-mJSF5tWhIcVHKOSk-31" value="" style="whiteSpace=wrap;html=1;align=center;verticalAlign=middle;treeFolding=1;treeMoving=1;newEdgeStyle={&quot;edgeStyle&quot;:&quot;elbowEdgeStyle&quot;,&quot;startArrow&quot;:&quot;none&quot;,&quot;endArrow&quot;:&quot;none&quot;};" vertex="1" collapsed="1" parent="aYS-mJSF5tWhIcVHKOSk-26">
          <mxGeometry x="50" y="70" width="20" height="20" as="geometry" />
        </mxCell>
        <mxCell id="aYS-mJSF5tWhIcVHKOSk-35" style="edgeStyle=elbowEdgeStyle;rounded=0;orthogonalLoop=1;jettySize=auto;html=1;startArrow=none;endArrow=none;exitX=0;exitY=0.25;exitDx=0;exitDy=0;entryX=0;entryY=0.5;entryDx=0;entryDy=0;" edge="1" parent="aYS-mJSF5tWhIcVHKOSk-26" source="aYS-mJSF5tWhIcVHKOSk-30" target="aYS-mJSF5tWhIcVHKOSk-30" visible="0">
          <mxGeometry relative="1" as="geometry" />
        </mxCell>
        <mxCell id="aYS-mJSF5tWhIcVHKOSk-37" value="&lt;div&gt;&lt;b&gt;LLVM&lt;/b&gt;&lt;/div&gt;" style="rounded=1;whiteSpace=wrap;html=1;fontSize=17;" vertex="1" parent="1">
          <mxGeometry x="590" y="457" width="80" height="30" as="geometry" />
        </mxCell>
        <mxCell id="aYS-mJSF5tWhIcVHKOSk-38" value="Python" style="rounded=1;whiteSpace=wrap;html=1;fontSize=17;fontStyle=1" vertex="1" parent="1">
          <mxGeometry x="590" y="417" width="80" height="30" as="geometry" />
        </mxCell>
        <mxCell id="aYS-mJSF5tWhIcVHKOSk-39" value="C++" style="rounded=1;whiteSpace=wrap;html=1;fontSize=17;fontStyle=1" vertex="1" parent="1">
          <mxGeometry x="590" y="537" width="80" height="30" as="geometry" />
        </mxCell>
        <mxCell id="aYS-mJSF5tWhIcVHKOSk-40" value="" style="endArrow=classic;html=1;rounded=0;" edge="1" parent="1">
          <mxGeometry width="50" height="50" relative="1" as="geometry">
            <mxPoint x="490" y="490" as="sourcePoint" />
            <mxPoint x="580" y="430" as="targetPoint" />
          </mxGeometry>
        </mxCell>
        <mxCell id="aYS-mJSF5tWhIcVHKOSk-41" value="" style="endArrow=classic;html=1;rounded=0;" edge="1" parent="1">
          <mxGeometry width="50" height="50" relative="1" as="geometry">
            <mxPoint x="490" y="490" as="sourcePoint" />
            <mxPoint x="580" y="470" as="targetPoint" />
          </mxGeometry>
        </mxCell>
        <mxCell id="aYS-mJSF5tWhIcVHKOSk-42" value="" style="endArrow=classic;html=1;rounded=0;" edge="1" parent="1">
          <mxGeometry width="50" height="50" relative="1" as="geometry">
            <mxPoint x="490" y="490" as="sourcePoint" />
            <mxPoint x="580" y="550" as="targetPoint" />
          </mxGeometry>
        </mxCell>
        <mxCell id="aYS-mJSF5tWhIcVHKOSk-43" value="" style="endArrow=classic;html=1;rounded=0;" edge="1" parent="1">
          <mxGeometry width="50" height="50" relative="1" as="geometry">
            <mxPoint x="330" y="480" as="sourcePoint" />
            <mxPoint x="390" y="480" as="targetPoint" />
          </mxGeometry>
        </mxCell>
        <mxCell id="aYS-mJSF5tWhIcVHKOSk-44" value="" style="endArrow=classic;html=1;rounded=0;" edge="1" parent="1">
          <mxGeometry width="50" height="50" relative="1" as="geometry">
            <mxPoint x="230" y="490" as="sourcePoint" />
            <mxPoint x="130" y="490" as="targetPoint" />
          </mxGeometry>
        </mxCell>
        <mxCell id="aYS-mJSF5tWhIcVHKOSk-45" value="" style="endArrow=classic;html=1;rounded=0;" edge="1" parent="1">
          <mxGeometry width="50" height="50" relative="1" as="geometry">
            <mxPoint x="390" y="500" as="sourcePoint" />
            <mxPoint x="330" y="500" as="targetPoint" />
          </mxGeometry>
        </mxCell>
        <mxCell id="aYS-mJSF5tWhIcVHKOSk-46" value="" style="endArrow=classic;html=1;rounded=0;" edge="1" parent="1">
          <mxGeometry width="50" height="50" relative="1" as="geometry">
            <mxPoint x="130" y="510" as="sourcePoint" />
            <mxPoint x="230" y="510" as="targetPoint" />
          </mxGeometry>
        </mxCell>
        <mxCell id="aYS-mJSF5tWhIcVHKOSk-47" value="WASM" style="rounded=1;whiteSpace=wrap;html=1;fontSize=17;fontStyle=1" vertex="1" parent="1">
          <mxGeometry x="590" y="497" width="80" height="30" as="geometry" />
        </mxCell>
        <mxCell id="aYS-mJSF5tWhIcVHKOSk-48" value="" style="endArrow=classic;html=1;rounded=0;" edge="1" parent="1">
          <mxGeometry width="50" height="50" relative="1" as="geometry">
            <mxPoint x="490" y="490" as="sourcePoint" />
            <mxPoint x="580" y="510" as="targetPoint" />
          </mxGeometry>
        </mxCell>
      </root>
    </mxGraphModel>
  </diagram>
</mxfile>
